<svg xmlns="http://www.w3.org/2000/svg" xml:space="preserve" style="fill-rule:evenodd;clip-rule:evenodd;stroke-linejoin:round;stroke-miterlimit:2" viewBox="0 0 700 700"><ellipse cx="548.72" cy="528.21" rx="178.85" ry="178.67" style="fill:#1d336a" transform="translate(-201.369 -178.78)"/><path d="M679.42 587.31a2.692 2.692 0 0 0-2.58-2.68h-12.42l-4.16-12.49a2.685 2.685 0 0 0-2.558-1.88 2.687 2.687 0 0 0-2.612 2.08L651 584.62H638.688c-1.47 0-2.68 1.21-2.68 2.68 0 .785.345 1.531.942 2.04l10.45 8-3.89 12.44c-.168.35-.257.732-.26 1.12a2.702 2.702 0 0 0 2.69 2.69h.01a2.651 2.651 0 0 0 1.61-.55l10.14-7.77 9.79 7.51a2.692 2.692 0 0 0 1.91.796 2.703 2.703 0 0 0 2.69-2.686c0-.314-.058-.626-.17-.92L668 597.42l10.3-7.95a2.675 2.675 0 0 0 1.12-2.16ZM696.84 522.88a2.692 2.692 0 0 0-2.57-2.68h-12.42l-4.17-12.49a2.685 2.685 0 0 0-2.558-1.88 2.687 2.687 0 0 0-2.612 2.08l-4.1 12.29h-12.29a2.702 2.702 0 0 0-2.69 2.69 2.642 2.642 0 0 0 1 2l10.45 8-3.89 12.44c-.165.35-.25.733-.25 1.12v.013c0 1.47 1.21 2.68 2.68 2.68.589 0 1.162-.195 1.63-.553l10.15-7.77 9.78 7.51a2.693 2.693 0 0 0 1.92.806 2.702 2.702 0 0 0 2.69-2.69v-.006a2.61 2.61 0 0 0-.18-.92L685.44 533l10.3-8a2.662 2.662 0 0 0 1.1-2.12ZM679.42 460.38a2.692 2.692 0 0 0-2.58-2.68h-12.42l-4.16-12.49a2.685 2.685 0 0 0-2.558-1.88 2.687 2.687 0 0 0-2.612 2.08L651 457.69h-12.3a2.693 2.693 0 0 0-2.631 2.68c0 .779.34 1.521.931 2.03l10.45 8-3.89 12.44c-.168.35-.257.732-.26 1.12a2.702 2.702 0 0 0 2.69 2.69h.01a2.651 2.651 0 0 0 1.61-.55l10.14-7.77 9.79 7.51a2.654 2.654 0 0 0 1.91.8h.01c1.47 0 2.68-1.21 2.68-2.68v-.01c0-.314-.058-.626-.17-.92L668 470.5l10.3-8a2.672 2.672 0 0 0 1.12-2.12ZM633 414a2.692 2.692 0 0 0-2.58-2.68H618l-4.17-12.49a2.685 2.685 0 0 0-2.558-1.88 2.687 2.687 0 0 0-2.612 2.08l-4.1 12.29h-12.302c-1.47 0-2.68 1.21-2.68 2.68 0 .785.345 1.531.942 2.04L601 424l-3.89 12.44c-.165.35-.25.733-.25 1.12v.01c0 1.47 1.21 2.68 2.68 2.68h.01a2.651 2.651 0 0 0 1.61-.55l10.13-7.7 9.79 7.51a2.692 2.692 0 0 0 1.91.796 2.703 2.703 0 0 0 2.69-2.686c0-.314-.058-.626-.17-.92l-3.94-12.59 10.3-7.95A2.673 2.673 0 0 0 633 414ZM569.71 397.36a2.691 2.691 0 0 0-2.57-2.67h-12.42l-4.17-12.48a2.686 2.686 0 0 0-2.559-1.885c-1.243 0-2.33.865-2.611 2.075l-4.1 12.29h-12.282c-1.47 0-2.68 1.21-2.68 2.68 0 .785.345 1.531.942 2.04l10.45 8-3.89 12.44c-.165.35-.25.733-.25 1.12v.013c0 1.47 1.21 2.68 2.68 2.68.589 0 1.162-.195 1.63-.553l10.12-7.74 9.78 7.51a2.693 2.693 0 0 0 1.92.806 2.702 2.702 0 0 0 2.69-2.69v-.006a2.61 2.61 0 0 0-.18-.92l-3.94-12.58 10.3-8a2.69 2.69 0 0 0 1.14-2.13ZM505.93 414.14a2.692 2.692 0 0 0-2.58-2.67h-12.42L486.77 399a2.686 2.686 0 0 0-2.559-1.885c-1.243 0-2.33.865-2.611 2.075l-4.1 12.29H465.198c-1.47 0-2.68 1.21-2.68 2.68 0 .785.345 1.531.942 2.04l10.45 8-3.91 12.45a2.74 2.74 0 0 0-.25 1.12v.003c0 1.47 1.21 2.68 2.68 2.68.589 0 1.162-.195 1.63-.553l10.14-7.77 9.79 7.51c.5.516 1.191.806 1.91.8h.01c1.47 0 2.68-1.21 2.68-2.68a2.78 2.78 0 0 0-.17-.92l-3.94-12.58 10.29-7.95a2.664 2.664 0 0 0 1.16-2.17ZM460.78 460.54a2.692 2.692 0 0 0-2.58-2.68h-12.42l-4.16-12.49a2.685 2.685 0 0 0-2.558-1.88 2.687 2.687 0 0 0-2.612 2.08l-4.1 12.29h-12.302c-1.47 0-2.68 1.21-2.68 2.68 0 .785.345 1.531.942 2.04l10.45 8-3.89 12.42c-.168.35-.257.732-.26 1.12a2.702 2.702 0 0 0 2.69 2.69h.01a2.651 2.651 0 0 0 1.61-.55l10.14-7.77 9.79 7.51a2.692 2.692 0 0 0 1.91.796 2.703 2.703 0 0 0 2.69-2.686c0-.314-.058-.626-.17-.92l-3.94-12.59 10.3-7.95a2.672 2.672 0 0 0 1.14-2.11ZM444 523a2.691 2.691 0 0 0-2.57-2.67H429l-4.17-12.48a2.686 2.686 0 0 0-2.559-1.885c-1.243 0-2.33.865-2.611 2.075l-4.1 12.29h-12.272c-1.47 0-2.68 1.21-2.68 2.68 0 .785.345 1.531.942 2.04l10.45 8-3.89 12.44c-.165.35-.25.733-.25 1.12a2.702 2.702 0 0 0 2.69 2.69 2.635 2.635 0 0 0 1.62-.56l10.15-7.74 9.78 7.51a2.693 2.693 0 0 0 1.92.806 2.702 2.702 0 0 0 2.69-2.69v-.006a2.566 2.566 0 0 0-.18-.92l-3.94-12.58 10.3-7.95A2.71 2.71 0 0 0 444 523ZM460.78 587.48a2.692 2.692 0 0 0-2.58-2.68h-12.42l-4.16-12.49a2.685 2.685 0 0 0-2.558-1.88 2.687 2.687 0 0 0-2.612 2.08l-4.1 12.29h-12.302c-1.47 0-2.68 1.21-2.68 2.68 0 .785.345 1.531.942 2.04l10.45 8-3.89 12.48c-.168.35-.257.732-.26 1.12a2.702 2.702 0 0 0 2.69 2.69h.01a2.651 2.651 0 0 0 1.61-.55l10.14-7.77 9.79 7.51a2.692 2.692 0 0 0 1.91.796 2.703 2.703 0 0 0 2.69-2.686c0-.314-.058-.626-.17-.92l-3.94-12.59 10.3-8a2.67 2.67 0 0 0 1.14-2.12ZM506.59 633.22a2.712 2.712 0 0 0-2.58-2.68h-12.42L487.42 618a2.685 2.685 0 0 0-2.558-1.88 2.687 2.687 0 0 0-2.612 2.08l-4.1 12.29h-12.29a2.712 2.712 0 0 0-2.69 2.69c.008.773.356 1.505.95 2l10.45 8-3.89 12.44a2.84 2.84 0 0 0-.25 1.13v.003c0 1.47 1.21 2.68 2.68 2.68.589 0 1.162-.195 1.63-.553l10.14-7.77 9.78 7.51a2.693 2.693 0 0 0 1.92.806 2.703 2.703 0 0 0 2.69-2.686 2.73 2.73 0 0 0-.17-.92l-3.94-12.58 10.29-8a2.672 2.672 0 0 0 1.14-2.02ZM570.42 649.8a2.692 2.692 0 0 0-2.58-2.67h-12.41l-4.17-12.48a2.677 2.677 0 0 0-2.555-1.895 2.678 2.678 0 0 0-2.605 2.085l-4.1 12.27H529.698c-1.47 0-2.68 1.21-2.68 2.68 0 .785.345 1.531.942 2.04l10.45 8-3.89 12.44c-.166.35-.251.733-.25 1.12v.003c0 1.47 1.21 2.68 2.68 2.68.589 0 1.162-.195 1.63-.553l10.15-7.77 9.78 7.51a2.654 2.654 0 0 0 1.91.8h.01c1.47 0 2.68-1.21 2.68-2.68a2.539 2.539 0 0 0-.17-.92L559 659.92l10.3-7.95a2.665 2.665 0 0 0 1.12-2.17ZM633 633.06a2.692 2.692 0 0 0-2.58-2.67H618l-4.17-12.48a2.686 2.686 0 0 0-2.559-1.885c-1.243 0-2.33.865-2.611 2.075l-4.1 12.29h-12.302c-1.47 0-2.68 1.21-2.68 2.68 0 .785.345 1.531.942 2.04l10.45 8-3.89 12.44c-.165.35-.25.733-.25 1.12a2.702 2.702 0 0 0 2.69 2.69 2.651 2.651 0 0 0 1.61-.55l10.14-7.77 9.79 7.51a2.692 2.692 0 0 0 1.91.796 2.703 2.703 0 0 0 2.69-2.686c0-.314-.058-.626-.17-.92l-3.94-12.59 10.3-7.95a2.672 2.672 0 0 0 1.15-2.14Z" style="fill:#f1cc49;fill-rule:nonzero" transform="translate(-201.369 -178.78)"/><path d="M575.17 516.44H575v-14c-.016-13.95-11.49-25.424-25.44-25.44h-.02c-13.969 0-25.465 11.491-25.47 25.46v14c-5.531.145-10.002 4.737-10 10.27v44.17c.005 5.641 4.649 10.28 10.29 10.28h50.85c5.641 0 10.285-4.639 10.29-10.28v-44.18c-.005-5.641-4.649-10.28-10.29-10.28h-.04Zm-20.6 36.23v8.16c0 2.65-2.18 4.83-4.83 4.83s-4.83-2.18-4.83-4.83v-8.16a10.723 10.723 0 0 1-5.88-9.559c0-5.875 4.835-10.71 10.71-10.71 5.875 0 10.71 4.835 10.71 10.71 0 4.034-2.279 7.74-5.88 9.559Zm9.53-36.23H535v-15.06c.005-7.973 6.567-14.53 14.54-14.53h.01c7.973 0 14.535 6.557 14.54 14.53l.01 15.06Z" style="fill:#fff;fill-rule:nonzero" transform="translate(-201.369 -178.78)"/><path d="M518.74 878c-127.224-11.792-238.243-92.417-288.82-209.75a7.91 7.91 0 0 1-.586-2.988c0-4.339 3.571-7.91 7.91-7.91A7.922 7.922 0 0 1 244.45 662c48.277 112.047 154.277 189.049 275.76 200.32 4.016.404 7.109 3.824 7.109 7.86 0 4.307-3.522 7.861-7.829 7.9l-.75-.08ZM586.43 877.79c-4.036.014-7.46-3.083-7.85-7.1-.446-4.293 2.709-8.196 7-8.66 169.543-17.231 300.049-161.673 300.049-332.089 0-96.157-41.549-187.772-113.889-251.121a7.892 7.892 0 0 1-.74-11.14c2.868-3.256 7.903-3.586 11.17-.73 75.716 66.356 119.199 162.282 119.199 262.959 0 178.446-136.606 329.713-314.129 347.841a7.298 7.298 0 0 1-.81.04Z" style="fill:#1d336a;fill-rule:nonzero" transform="translate(-201.369 -178.78)"/><path d="M551.46 791.84c-144.58 0-262.2-117.51-262.2-261.94 0-3.78.08-7.54.24-11.28.288-4.121 3.759-7.358 7.891-7.358 4.339 0 7.91 3.57 7.91 7.91l-.001.108c-.15 3.53-.22 7.06-.22 10.62 0 135.72 110.52 246.1 246.38 246.1s246.39-110.38 246.39-246.1a246.095 246.095 0 0 0-31.21-120 7.914 7.914 0 0 1-.923-3.709c0-4.339 3.57-7.91 7.91-7.91a7.92 7.92 0 0 1 6.823 3.909 261.95 261.95 0 0 1 33.21 127.71c0 144.43-117.66 261.94-262.2 261.94Z" style="fill:#1d336a;fill-rule:nonzero" transform="translate(-201.369 -178.78)"/><path d="M551.46 750.61a218.902 218.902 0 0 1-136.52-47.16 7.921 7.921 0 0 1-3.026-6.225c0-4.343 3.573-7.916 7.916-7.916 1.773 0 3.496.596 4.89 1.691 87.077 68.308 214.521 54.539 285-30.79a7.914 7.914 0 0 1 5.948-2.695c4.339 0 7.91 3.57 7.91 7.91a7.912 7.912 0 0 1-1.658 4.845c-41.909 50.907-104.521 80.417-170.46 80.34Z" style="fill:#1d336a;fill-rule:nonzero" transform="translate(-201.369 -178.78)"/><path d="M725.68 777.52c-65.403 46.309-146.647 64.675-225.61 51-3.781-.644-6.573-3.953-6.573-7.788 0-.446.038-.892.113-1.332.643-3.776 3.948-6.565 7.778-6.565.45 0 .899.038 1.342.115a287.215 287.215 0 0 0 48.362 4.1c144.953 0 268.344-109.712 285.298-253.67.464-3.963 3.86-6.984 7.85-6.984 4.336 0 7.904 3.568 7.904 7.904 0 .307-.018.615-.054.92-10.084 85.46-56.082 162.711-126.41 212.3ZM450.64 812.15a7.897 7.897 0 0 1-7.37.93c-117.301-44.545-195.295-157.592-195.295-283.067 0-79.503 31.313-155.893 87.115-212.523a7.78 7.78 0 0 1 1.08-.93 7.898 7.898 0 0 1 4.518-1.419c4.334 0 7.9 3.566 7.9 7.9a7.9 7.9 0 0 1-2.248 5.519c-52.898 53.677-82.582 126.088-82.582 201.451 0 118.935 73.932 226.09 185.122 268.309a7.905 7.905 0 0 1 5.104 7.382 7.895 7.895 0 0 1-3.344 6.448ZM846.73 487.4a7.637 7.637 0 0 1-3.24 1.33c-4.272.713-8.376-2.21-9.1-6.48-23.421-137.594-143.83-239.24-283.404-239.24A287.495 287.495 0 0 0 409.92 280a7.903 7.903 0 0 1-3.862 1.008c-4.334 0-7.9-3.566-7.9-7.9a7.907 7.907 0 0 1 3.322-6.438 7.51 7.51 0 0 1 .67-.42 303.242 303.242 0 0 1 148.908-39.082c147.262 0 274.291 107.278 298.942 252.462a7.922 7.922 0 0 1-3.27 7.77Z" style="fill:#1d336a;fill-rule:nonzero" transform="translate(-201.369 -178.78)"/><path d="M374.82 656.79a7.925 7.925 0 0 1-6.56-3.48c-63.27-93.787-44.672-221.813 42.67-293.72a7.902 7.902 0 0 1 5.035-1.812c4.335 0 7.902 3.567 7.902 7.902a7.905 7.905 0 0 1-2.867 6.09c-81.091 66.759-98.365 185.62-39.63 272.7a7.889 7.889 0 0 1-2.12 11 7.862 7.862 0 0 1-4.43 1.32ZM748.24 619.44a7.656 7.656 0 0 1-3-.61 7.877 7.877 0 0 1-4.24-10.32 203.642 203.642 0 0 0 15.63-78.61c0-113-92-204.92-205.12-204.92a203.992 203.992 0 0 0-81.55 16.83 7.768 7.768 0 0 1-3.14.66h-.022c-4.334 0-7.9-3.566-7.9-7.9a7.913 7.913 0 0 1 4.762-7.25 219.765 219.765 0 0 1 87.85-18.14c121.82 0 220.93 99 220.93 220.72a219.38 219.38 0 0 1-16.84 84.67 7.914 7.914 0 0 1-7.36 4.87Z" style="fill:#1d336a;fill-rule:nonzero" transform="translate(-201.369 -178.78)"/><path d="M209.36 537.8c-4.332-.005-7.895-3.568-7.9-7.9 0-192.8 157-349.65 350-349.65a350.96 350.96 0 0 1 165 41.23 7.91 7.91 0 0 1 4.163 6.96c0 4.334-3.567 7.9-7.9 7.9h-.003a7.775 7.775 0 0 1-3.73-.94 335.109 335.109 0 0 0-157.56-39.35c-184.27 0-334.19 149.76-334.19 333.85-.005 4.324-3.556 7.884-7.88 7.9Z" style="fill:#1d336a;fill-rule:nonzero" transform="translate(-201.369 -178.78)"/><path d="M318.73 435.25a7.997 7.997 0 0 1-3.19-.67c-3.952-1.764-5.756-6.464-4-10.42 41.947-94.784 136.292-156.202 239.943-156.202 69.499 0 136.229 27.613 185.407 76.722a7.905 7.905 0 0 1 2.202 5.472c0 4.334-3.566 7.9-7.9 7.9a7.905 7.905 0 0 1-5.472-2.202 246.675 246.675 0 0 0-174.229-72.088c-97.407 0-186.068 57.716-225.491 146.788a7.942 7.942 0 0 1-7.27 4.7Z" style="fill:#1d336a;fill-rule:nonzero" transform="translate(-201.369 -178.78)"/><circle cx="747.14" cy="246.94" r="7.59" style="fill:#1d336a" transform="translate(-201.369 -178.78)"/><circle cx="754.56" cy="376.6" r="7.59" style="fill:#1d336a" transform="translate(-201.369 -178.78)"/><circle cx="847.27" cy="522.94" r="7.59" style="fill:#1d336a" transform="translate(-201.369 -178.78)"/><circle cx="734.16" cy="639.64" r="7.59" style="fill:#1d336a" transform="translate(-201.369 -178.78)"/><circle cx="554.3" cy="871.19" r="7.59" style="fill:#1d336a" transform="translate(-201.369 -178.78)"/><circle cx="470.86" cy="813.76" r="7.59" style="fill:#1d336a" transform="translate(-201.369 -178.78)"/><circle cx="394.84" cy="672.98" r="7.59" style="fill:#1d336a" transform="translate(-201.369 -178.78)"/><circle cx="216.84" cy="602.59" r="7.59" style="fill:#1d336a" transform="translate(-201.369 -178.78)"/><circle cx="302.13" cy="471.07" r="7.59" style="fill:#1d336a" transform="translate(-201.369 -178.78)"/><circle cx="439.34" cy="346.96" r="7.59" style="fill:#1d336a" transform="translate(-201.369 -178.78)"/><circle cx="368.88" cy="293.25" r="7.59" style="fill:#1d336a" transform="translate(-201.369 -178.78)"/></svg>
